<?xml version="1.0" encoding="utf-8"?>
<svg xmlns="http://www.w3.org/2000/svg" viewBox="10.5017 12.5303 410.5723 467.8595" width="410.572px" height="467.86px" xmlns:bx="https://boxy-svg.com" preserveAspectRatio="none"><defs><linearGradient id="linear-gradient" x1="23.92" y1="13.42" x2="74.21" y2="97.12" gradientUnits="userSpaceOnUse"><stop offset="0" stop-color="#382d7a"/><stop offset="0.12" stop-color="#36337f"/><stop offset="0.3" stop-color="#324590"/><stop offset="0.5" stop-color="#2c63ab"/><stop offset="0.61" stop-color="#2878be"/><stop offset="1" stop-color="#81cdc3"/></linearGradient><bx:export><bx:file format="svg"/></bx:export></defs><g id="Layer_1" transform="matrix(2.825767993927002, 0, 0, 2.825767993927002, -119.64954376220714, 86.80171203613281)" style=""><g transform="matrix(1.576534, 0, 0, 1.576534, 32.420238, -35.4566)" style=""><g><path class="cls-2" d="M45.88,107.83s3.28-3.28-1-11.85c-3.58-7.17-7.35-10.49-9.84-12.69-.45-.4-.85-.75-1.21-1.09-3.22-3.01-8.23-8.27-8.87-9.89-1.41-3.55-.09-8.45,1.19-13.19.43-1.59.83-3.08,1.08-4.34.35-1.78.12-3.5-.6-4.78l-5.22,5.08c-1.3,1.26-2.16,2.9-2.47,4.68l-3.06,17.69c-.08.43-.19.86-.02,1.31.18.44,11.38,18.32,11.38,18.32.16.25.35.47.56.67.2.21.42.4.67.56,0,0,11.87,7.44,16.5,10.29l.9-.77Z" style="fill: rgb(30, 25, 77);"/><path class="cls-2" d="M97.48,47.4l-19.36-19.36c-.24-.24-.55-.36-.86-.36s-.63.12-.86.36l-1.94,1.94c-.5.5-.5,1.3,0,1.79l1.93,1.93s.02.05,0,.06l-9.42,9.42s-.04.02-.05,0l-7.93-4.18c-.47-.25-.97-.42-1.48-.5-.27-.05-.55-.07-.83-.07-.24,0-.47.02-.71.05l-8.91,1.28c1.36,1.54,3.03,2.82,4.55,3.57.67.33,1.38.64,2.13.96,4.42,1.91,11.11,4.8,11.17,15.25v.68c0,3.09.02,6.93,2.11,8.52,7.7,5.86,5.88,17.44,5.65,18.75-1.11,6.21-2.59,8.54-5.11,10.88l-3.62,3.38c-.43,1.47-1.03,2.73-1.77,3.76-.52.72-1.02,1.37-1.52,1.98l5.16-.89c1.78-.31,3.42-1.17,4.68-2.47l11.69-12.03c1.26-1.3,2.08-2.96,2.33-4.75l2.56-17.77c.07-.51.07-1.03-.02-1.53-.09-.51-.26-1.01-.5-1.48l-4.18-7.93s0-.04,0-.05l9.42-9.42s.05-.02.06,0l1.96,1.96c.24.24.55.36.86.36s.63-.12.86-.36l1.94-1.94c.5-.5.5-1.3,0-1.79Z" style="fill: rgb(30, 25, 77);"/></g><path class="cls-1" d="M47.98,110.24s5.33-4.53-.25-15.69c-4.48-8.97-9.28-12.4-11.72-14.69-4.29-4.02-7.85-8.15-8.08-8.73-1.41-3.56,1.46-10.8,2.43-15.74,1.77-8.98-7.42-15.1-11.49-4.95-2.96,7.39-14.72-14.39-8.36-27.27,2.29-4.63,10.44-8.28,18.25-5.48,0,0-2.76.83-4.55,3.79-4.51,7.46,4.03,16.47,5.31,17.59,6.93,6.12,9.21,8.71,8.75,13.91-.23,2.59-2.35,6.89,5.37,14.34,4.42,4.26,13.14,12.68,16.4,20.95,2.26,5.73,1.64,12.39-.51,15.37s-3.96,4.71-5.86,5.8c-4.49,2.6-5.69.78-5.69.78ZM54.99,16.22c-1.86-1.07-2.87-1.64-2.81-2.47.09-1.15,2.83-1.68,2.52-3.03-1.18-5.13-7.29-4.9-7.29-4.9,0,0,1.78,1.82,1.14,2.7-.63.88-3.71.66-5.99.37-2.28-.29-3.82.27-3.58,1.83.24,1.56,2.44,1.86,5.04,4.53,2.61,2.67-.55,2.97-3.37,3.11-2.81.14-6.25.08-9.06,2.84-2.02,1.98-4.75,5.32.04,13.49,7.84,13.35,17.29,12.87,20.38,21.27.55,1.49.52,3.51-1.28,3.6-1.34.07-4.25-3.2-4.81-6.4-1.34-.06-4.57,5.39-1.1,9.27,4.58,5.13,12.1,10.76,16.65,18.22,6.1,10,3.85,15.38,3.85,15.38,2.05-1.9,3.14-3.55,4.14-9.09.61-3.4.93-11.55-4.44-15.63-3.57-2.71-3.35-8.06-3.37-11.73-.06-9.83-6.64-10.95-11.52-13.36-4.19-2.07-10.25-7.89-8.83-14.28.4-1.8,1.07-2.92,1.97-3.62,1.43-1.1,2.98-1.02,11.01-.68,2.57.11,4.79.18,6.72-1.02.5-.31,1.6-1.02,2.05-2.35.04-.1.33-1.02.12-1.99-.41-1.85-2.45-2.74-8.2-6.06Z" style="fill: url(&quot;#linear-gradient&quot;);"/><path class="cls-2" d="M94.22,39.26l-9.8-9.8c-.55-.55-.55-1.44,0-1.99l2.87-4.19c.55-.55,1.44-.55,1.99,0l11.12,11.12c.55.55.55,1.44,0,1.99l-4.19,2.87c-.55.55-1.44.55-1.99,0Z" style="fill: rgb(30, 25, 77);"/></g></g></svg>